<?xml version="1.0" encoding="UTF-8" standalone="no"?>
<svg
   xmlns:dc="http://purl.org/dc/elements/1.1/"
   xmlns:cc="http://creativecommons.org/ns#"
   xmlns:rdf="http://www.w3.org/1999/02/22-rdf-syntax-ns#"
   xmlns:svg="http://www.w3.org/2000/svg"
   xmlns="http://www.w3.org/2000/svg"
   xmlns:sodipodi="http://sodipodi.sourceforge.net/DTD/sodipodi-0.dtd"
   xmlns:inkscape="http://www.inkscape.org/namespaces/inkscape"
   version="1.1"
   x="0px"
   y="0px"
   viewBox="0 0 97.200073 63.608337"
   xml:space="preserve"
   id="svg28"
   sodipodi:docname="crowd.svg"
   width="97.200073"
   height="63.608337"
   inkscape:version="0.92.4 (5da689c313, 2019-01-14)"><metadata
     id="metadata34"><rdf:RDF><cc:Work
         rdf:about=""><dc:format>image/svg+xml</dc:format><dc:type
           rdf:resource="http://purl.org/dc/dcmitype/StillImage" /></cc:Work></rdf:RDF></metadata><defs
     id="defs32" /><sodipodi:namedview
     pagecolor="#ffffff"
     bordercolor="#666666"
     borderopacity="1"
     objecttolerance="10"
     gridtolerance="10"
     guidetolerance="10"
     inkscape:pageopacity="0"
     inkscape:pageshadow="2"
     inkscape:window-width="1920"
     inkscape:window-height="1017"
     id="namedview30"
     showgrid="false"
     inkscape:zoom="7.552"
     inkscape:cx="52.611878"
     inkscape:cy="17.709464"
     inkscape:window-x="1072"
     inkscape:window-y="379"
     inkscape:window-maximized="1"
     inkscape:current-layer="svg28" /><g
     id="g22"
     transform="translate(-1.3999633,-18.19583)"
     style="fill:#5aa02c"><circle
       cx="67.283447"
       cy="23.776962"
       r="4.8802872"
       id="circle2"
       style="fill:#5aa02c" /><ellipse
       transform="rotate(-13.282471,49.999828,24.502486)"
       cx="49.999832"
       cy="24.502487"
       rx="6.3066883"
       ry="6.306654"
       id="ellipse4"
       style="fill:#5aa02c" /><path
       d="m 58.432983,32.185699 c -0.624145,-0.381713 -1.361206,-0.583252 -2.132385,-0.583252 -1.415771,0 -2.448852,0.879212 -3.202454,1.520874 -0.877319,0.746827 -1.597839,1.126587 -3.098327,1.126587 -1.496582,0 -2.2677,-0.411865 -3.094361,-1.12268 -0.705932,-0.607544 -1.773132,-1.524781 -3.20642,-1.524781 -0.77118,0 -1.50824,0.201538 -2.132386,0.583252 -2.038879,1.245362 -5.460449,4.664978 -5.460449,13.572327 0,8.779785 2.757507,11.817688 4.402039,12.848877 0.292114,0.182068 0.493652,0.489746 0.542358,0.752625 l 1.361206,18.016296 c 0.01563,0.181091 0.445007,4.428345 7.588013,4.428345 7.143982,0 7.571472,-4.247254 7.587036,-4.434204 l 1.350525,-17.920838 c 0.05841,-0.352478 0.260925,-0.65918 0.555969,-0.843201 1.643616,-1.031127 4.400147,-4.070068 4.400147,-12.8479 0,-8.907348 -3.42157,-12.326965 -5.460511,-13.572327 z"
       id="path6"
       inkscape:connector-curvature="0"
       style="fill:#5aa02c" /><circle
       cx="84.70636"
       cy="24.502487"
       r="6.3066483"
       id="circle8"
       style="fill:#5aa02c" /><path
       d="m 93.139587,32.185699 c -0.624145,-0.381713 -1.361267,-0.583252 -2.132446,-0.583252 -1.41571,0 -2.448791,0.879212 -3.202454,1.520874 -0.877319,0.746827 -1.597839,1.126587 -3.098327,1.126587 -1.496521,0 -2.2677,-0.411865 -3.094361,-1.12268 -0.705932,-0.607544 -1.773132,-1.524781 -3.206359,-1.524781 -0.77118,0 -1.508301,0.201538 -2.132447,0.583252 -2.038879,1.245362 -5.460449,4.664978 -5.460449,13.572327 0,8.777832 2.756531,11.816773 4.402039,12.848877 0.293091,0.183044 0.49469,0.48877 0.542358,0.752625 l 1.361267,18.016296 c 0.01556,0.181091 0.444947,4.428345 7.587952,4.428345 7.144043,0 7.571472,-4.247254 7.587036,-4.434204 l 1.351502,-17.922791 c 0.05841,-0.351501 0.260009,-0.657227 0.554992,-0.841248 1.643616,-1.031127 4.400147,-4.070068 4.400147,-12.8479 0,-8.907348 -3.42157,-12.326965 -5.46045,-13.572327 z"
       id="path10"
       inkscape:connector-curvature="0"
       style="fill:#5aa02c" /><path
       d="m 68.81842,45.758392 c 0,-9.233215 3.591187,-12.935913 5.820069,-14.346313 -0.454163,-0.491761 -0.889893,-0.822388 -1.231812,-1.031189 -0.374389,-0.228699 -0.808777,-0.337891 -1.247497,-0.337891 -0.779786,0 -1.384095,0.487061 -1.977845,0.992615 -0.748168,0.637085 -1.481262,1.055908 -2.897888,1.055908 -1.636535,0 -2.388794,-0.57428 -3.237121,-1.360474 -0.411011,-0.380981 -0.934388,-0.653686 -1.494019,-0.684082 -0.487244,-0.02649 -0.976623,0.08008 -1.39209,0.333924 -0.32904,0.200927 -0.744873,0.512451 -1.180481,0.973816 2.221131,1.369079 5.908081,5.051147 5.908081,14.403686 0,7.317688 -1.832092,10.968201 -3.726867,12.790589 -0.266907,0.256713 -0.391907,0.626037 -0.364014,0.9953 l 0.384338,5.085083 c 0,0 0.221863,2.717712 5.102173,2.717712 4.88031,0 5.102112,-2.717712 5.102112,-2.717712 l 0.393738,-5.208862 C 72.806457,59.061004 72.689453,58.69992 72.434753,58.444794 70.579956,56.5867 68.81842,52.93338 68.81842,45.758392 Z"
       id="path12"
       inkscape:connector-curvature="0"
       style="fill:#5aa02c" /><ellipse
       transform="rotate(-13.282453,32.657854,23.776961)"
       cx="32.657852"
       cy="23.776962"
       rx="4.8802967"
       ry="4.8802624"
       id="ellipse14"
       style="fill:#5aa02c" /><path
       d="m 34.19281,45.758392 c 0,-9.233215 3.591187,-12.935913 5.820068,-14.346313 -0.454162,-0.491761 -0.889892,-0.822388 -1.231811,-1.031189 -0.37439,-0.228699 -0.808777,-0.337891 -1.247498,-0.337891 -0.779846,0 -1.384094,0.487061 -1.977844,0.992615 -0.748169,0.637085 -1.481262,1.055908 -2.897888,1.055908 -1.636597,0 -2.388794,-0.57428 -3.237122,-1.360474 -0.41101,-0.380981 -0.934387,-0.653686 -1.494018,-0.684082 -0.487244,-0.02649 -0.976624,0.08008 -1.39209,0.333924 -0.329102,0.200927 -0.744934,0.512451 -1.180542,0.973816 2.221191,1.369079 5.908081,5.051147 5.908081,14.403686 0,7.317688 -1.832031,10.968201 -3.726807,12.790589 -0.266906,0.256713 -0.391967,0.626037 -0.364013,0.9953 l 0.384338,5.085083 c 0,0 0.221863,2.717712 5.102173,2.717712 4.88031,0 5.102112,-2.717712 5.102112,-2.717712 l 0.393738,-5.208862 C 38.180847,59.061004 38.063843,58.69992 37.809143,58.444794 35.954346,56.5867 34.19281,52.93338 34.19281,45.758392 Z"
       id="path16"
       inkscape:connector-curvature="0"
       style="fill:#5aa02c" /><ellipse
       transform="rotate(-13.282471,15.293286,24.502486)"
       cx="15.293289"
       cy="24.502487"
       rx="6.3066883"
       ry="6.306654"
       id="ellipse18"
       style="fill:#5aa02c" /><path
       d="m 23.72583,32.185699 c -0.624145,-0.381713 -1.361206,-0.583252 -2.131409,-0.583252 -1.415771,0 -2.448852,0.879212 -3.202514,1.520874 -0.877259,0.746827 -1.597779,1.126587 -3.098267,1.126587 -1.496582,0 -2.267761,-0.411865 -3.094421,-1.12268 -0.705933,-0.607544 -1.773072,-1.524781 -3.2063601,-1.524781 -0.7711792,0 -1.5082397,0.201538 -2.1323853,0.583252 -2.0389404,1.245362 -5.4605103,4.664978 -5.4605103,13.572327 0,8.779785 2.7575073,11.817688 4.4020996,12.848877 0.2921143,0.182068 0.4936523,0.489746 0.5423584,0.752625 l 1.3612061,18.016296 c 0.015564,0.181091 0.4450073,4.428345 7.5880126,4.428345 7.143982,0 7.571472,-4.247254 7.587036,-4.434204 l 1.350525,-17.920838 c 0.05841,-0.352478 0.260925,-0.660156 0.554993,-0.843201 1.643615,-1.030212 4.401062,-4.069091 4.401062,-12.8479 0,-8.907348 -3.421509,-12.326965 -5.461426,-13.572327 z"
       id="path20"
       inkscape:connector-curvature="0"
       style="fill:#5aa02c" /></g></svg>